<svg xmlns="http://www.w3.org/2000/svg" width="44" height="44" fill="none"><circle cx="22" cy="22" r="22" fill="#fff"/><circle cx="22" cy="22" r="20" fill="#355094"/><g fill="#fff"><path fill-rule="evenodd" clip-rule="evenodd" d="M11.096 29.14V14.383h6.849c2.2 0 3.983 1.777 3.983 3.968 0 1.393-.43 2.255-2.006 3.14 1.886.856 2.41 2.043 2.41 3.698 0 2.238-1.996 3.953-4.244 3.953zm2.898-12.315v3.55h3.392s1.649 0 1.649-1.775-1.649-1.775-1.649-1.775zm0 9.816V22.81h3.638c.588 0 1.82.302 1.82 2.114 0 1.344-1.213 1.706-1.82 1.718zm14.536-8.192c-2.085 0-5.174 1.49-5.174 5.455 0 2.414 1.326 5.512 5.306 5.512 3.184 0 4.65-2.328 4.984-3.492h-2.994c-.152.528-.74 1.114-1.99 1.114-1.82 0-2.464-1.548-2.558-2.322h7.542v-.812c0-3.964-3.032-5.455-5.117-5.455zm0 2.265c-1.699 0-2.325 1.397-2.426 2.095h4.548c0-.698-.425-2.095-2.123-2.095z"/><path d="M24.91 15.22v1.832h7.144V15.22z"/></g></svg>