<svg width="158" height="158" fill="none" xmlns="http://www.w3.org/2000/svg"><circle cx="79" cy="79" r="79" fill="#FFCD38"/><circle cx="80.073" cy="79.822" r="60.073" fill="#F6F9FF"/><path d="M93.351 86.401h-3.076l-1.09-1.053a25.275 25.275 0 006.113-16.502c0-14.006-11.33-25.359-25.309-25.359-13.978 0-25.308 11.353-25.308 25.359 0 14.005 11.33 25.358 25.308 25.358a25.168 25.168 0 0016.47-6.125l1.052 1.092v3.082l19.468 19.467 5.801-5.813-19.429-19.506zm-23.362 0c-9.695 0-17.52-7.841-17.52-17.555 0-9.715 7.825-17.556 17.52-17.556s17.522 7.842 17.522 17.556c0 9.714-7.827 17.555-17.522 17.555z" fill="#702F87"/></svg>