<svg width="90" height="48" fill="none" xmlns="http://www.w3.org/2000/svg"><g clip-path="url(#clip0)" fill="#000"><path d="M.92 23.698v23.361h89.066V.336H.92v23.362zm26.113-10.473v2.618H21.77v20.744h-5.466V15.843H10.84v-5.236h16.194v2.618zM39.46 16.71c2.652 1.31 4.474 3.646 5.081 6.526.304 1.43.385 3.604.183 4.672l-.122.624H37.64c-6.538 0-6.943.02-6.822.343.304.866 1.194 1.752 2.267 2.235 2.004.926 4.98.564 6.417-.786l.405-.382 1.66 1.692c.91.926 1.66 1.772 1.66 1.893 0 .302-1.357 1.309-2.571 1.933-1.559.765-3.158 1.128-5.121 1.128-4.15 0-7.43-1.853-9.15-5.156-.931-1.772-1.255-3.182-1.235-5.317 0-4.632 2.632-8.418 6.842-9.928.81-.282 1.498-.343 3.462-.282 2.388.06 2.51.08 4.008.805zm17.935 1.753v2.618h-4.858v15.507h-5.465V15.843h10.323v2.619zm13.866-2.196c.608.222 1.397.645 1.72.927l.608.503v-1.854h5.466v20.744H73.59v-1.833l-.648.504c-1.093.805-2.206 1.168-4.008 1.268-3.178.202-5.647-.704-7.773-2.82-2.044-2.013-2.955-4.37-2.955-7.551 0-4.612 2.692-8.479 6.963-9.95 1.519-.523 4.615-.503 6.093.061z"/><path d="M33.308 21a4.788 4.788 0 00-2.247 2.134l-.385.765h4.373c3.906 0 4.352-.04 4.25-.322-.06-.181-.121-.403-.121-.483 0-.363-1.295-1.652-2.044-2.035-.952-.463-2.814-.503-3.826-.06zm33.845.261c-2.024.705-3.279 2.517-3.279 4.753 0 1.59.283 2.538 1.073 3.544.91 1.189 2.146 1.773 3.745 1.793 2.064 0 3.583-.906 4.554-2.719.628-1.148.628-3.686 0-4.854-.627-1.188-1.882-2.215-3.117-2.577-1.336-.403-1.66-.403-2.976.06z"/></g><defs><clipPath id="clip0"><path fill="#fff" transform="translate(.92 .336)" d="M0 0h89.066v46.723H0z"/></clipPath></defs></svg>