<svg width="158" height="158" fill="none" xmlns="http://www.w3.org/2000/svg"><circle cx="79" cy="79" r="79" fill="#FFCD38"/><circle cx="80.568" cy="78.276" r="60.149" fill="#F6F9FF"/><path d="M92.226 41.618H64.971c-4.701 0-8.517 3.748-8.517 8.366v56.883c0 4.617 3.816 8.365 8.517 8.365h27.255c4.702 0 8.518-3.748 8.518-8.365V49.984c0-4.618-3.816-8.366-8.518-8.366zM78.6 111.886c-2.828 0-5.11-2.242-5.11-5.019 0-2.778 2.282-5.019 5.11-5.019 2.828 0 5.11 2.241 5.11 5.019 0 2.777-2.282 5.019-5.11 5.019zm15.33-13.385H63.269V51.657H93.93V98.5z" fill="#702F87"/></svg>