<svg xmlns="http://www.w3.org/2000/svg" width="158" height="158" fill="none"><circle cx="79" cy="79" r="79" fill="#355094"/><circle cx="80.568" cy="78.276" r="60.149" fill="#F6F9FF"/><path d="M46.045 56.487h66.747v-7.416H46.045c-4.079 0-7.416 3.337-7.416 7.416v44.498c0 4.08 3.337 7.417 7.416 7.417h14.833v-7.417H46.045zm37.081 22.25H68.294v6.6c-2.262 2.04-3.708 4.932-3.708 8.232 0 3.3 1.446 6.192 3.708 8.232v6.6h14.832v-6.6c2.263-2.04 3.709-4.969 3.709-8.232 0-3.263-1.446-6.193-3.709-8.232zM75.71 99.13a5.555 5.555 0 01-5.562-5.562 5.555 5.555 0 015.562-5.562 5.555 5.555 0 015.562 5.562 5.555 5.555 0 01-5.562 5.562zm40.79-35.227H94.25c-1.853 0-3.707 1.854-3.707 3.708v37.081c0 1.855 1.854 3.709 3.708 3.709H116.5c1.854 0 3.708-1.854 3.708-3.709v-37.08c0-1.854-1.854-3.708-3.708-3.708zm-3.708 37.081H97.959V71.32h14.833z" fill="#355094"/></svg>